<?xml version="1.0" encoding="UTF-8"?>
<svg viewBox="0 0 375 812" xmlns="http://www.w3.org/2000/svg" font-family="Inter, system-ui, sans-serif">
  <title>Coletaki — App Cidadã (Home)</title>
  <defs><linearGradient id="bz" x1="0%" y1="0%" x2="100%" y2="100%"><stop offset="0%" stop-color="#1A1A1A"/><stop offset="100%" stop-color="#000"/></linearGradient></defs>
  <rect width="375" height="812" rx="40" fill="url(#bz)"/>
  <rect x="6" y="6" width="363" height="800" rx="34" fill="#FAFAF7"/>
  <rect x="130" y="6" width="115" height="28" rx="14" fill="#000"/>
  <g transform="translate(20, 50)">
    <path d="M 8 4 A 8 8 0 1 0 8 18" fill="none" stroke="#0A6E7C" stroke-width="3.5" stroke-linecap="round"/>
    <circle cx="8" cy="18" r="3" fill="#F26B5E"/>
    <text x="26" y="18" font-size="18" font-weight="700" fill="#0A6E7C">coletaki</text>
    <g transform="translate(295, 0)"><circle cx="14" cy="14" r="14" fill="#F26B5E"/><text x="14" y="18" font-size="11" font-weight="700" fill="#FAFAF7" text-anchor="middle">JS</text></g>
  </g>
  <g transform="translate(20, 90)">
    <text font-size="12" fill="#7A7A6E">Bom dia,</text>
    <text y="22" font-size="22" font-weight="700" fill="#1F2A30">João Silva</text>
    <text y="42" font-size="11" fill="#7A7A6E">📍 Bairro Pindorama · Parnaíba/PI</text>
  </g>
  <g transform="translate(20, 160)">
    <rect width="335" height="76" rx="12" fill="#0A6E7C"/>
    <text x="16" y="22" font-size="9" fill="#FAFAF7" opacity="0.8" letter-spacing="1.5">PRÓXIMA COLETA NA SUA RUA</text>
    <text x="16" y="46" font-size="18" font-weight="700" fill="#FAFAF7">Hoje, terça-feira</text>
    <text x="16" y="64" font-size="12" fill="#FAFAF7" opacity="0.85">Coleta comum · entre 14h e 17h</text>
    <g transform="translate(285, 28)"><circle r="20" fill="#F26B5E"/><text y="5" font-size="14" font-weight="700" fill="#FAFAF7" text-anchor="middle">~3h</text></g>
  </g>
  <text x="20" y="264" font-size="13" font-weight="700" fill="#1F2A30">O que você quer fazer?</text>
  <g transform="translate(20, 278)">
    <rect width="160" height="100" rx="12" fill="#FFFFFF" stroke="#E5E5E0"/>
    <rect width="160" height="4" rx="2" fill="#0A6E7C"/>
    <g transform="translate(20, 22)"><rect width="30" height="30" rx="4" fill="#E0EEF0" stroke="#0A6E7C" stroke-width="1.5"/><path d="M 15 0 L 15 30 M 0 12 L 30 12" stroke="#0A6E7C" stroke-width="1.5"/></g>
    <text x="20" y="74" font-size="13" font-weight="700" fill="#1F2A30">Programar</text>
    <text x="20" y="89" font-size="13" font-weight="700" fill="#1F2A30">coleta especial</text>
  </g>
  <g transform="translate(195, 278)">
    <rect width="160" height="100" rx="12" fill="#FEF2F2" stroke="#DC2626" stroke-width="2"/>
    <rect width="160" height="4" rx="2" fill="#DC2626"/>
    <g transform="translate(20, 22)"><path d="M 15 2 L 30 28 L 0 28 Z" fill="#FEE2E2" stroke="#DC2626" stroke-width="1.8"/><line x1="15" y1="13" x2="15" y2="20" stroke="#DC2626" stroke-width="2" stroke-linecap="round"/><circle cx="15" cy="24" r="1.4" fill="#DC2626"/></g>
    <text x="20" y="74" font-size="13" font-weight="700" fill="#7F1D1D">Denunciar</text>
    <text x="20" y="89" font-size="13" font-weight="700" fill="#7F1D1D">vertido ilegal</text>
  </g>
  <g transform="translate(20, 394)">
    <rect width="160" height="100" rx="12" fill="#FFFFFF" stroke="#E5E5E0"/>
    <rect width="160" height="4" rx="2" fill="#F4A261"/>
    <text x="20" y="74" font-size="13" font-weight="700" fill="#1F2A30">Reportar lixo</text>
    <text x="20" y="89" font-size="13" font-weight="700" fill="#1F2A30">acumulado</text>
  </g>
  <g transform="translate(195, 394)">
    <rect width="160" height="100" rx="12" fill="#FFFFFF" stroke="#E5E5E0"/>
    <rect width="160" height="4" rx="2" fill="#2563EB"/>
    <text x="20" y="74" font-size="13" font-weight="700" fill="#1F2A30">Pontos de</text>
    <text x="20" y="89" font-size="13" font-weight="700" fill="#1F2A30">descarte próximos</text>
  </g>
  <g transform="translate(20, 510)">
    <rect width="335" height="70" rx="12" fill="#F5E9D9"/>
    <g transform="translate(16, 16)"><circle r="11" fill="#F26B5E"/><text y="4" font-size="14" font-weight="700" fill="#FAFAF7" text-anchor="middle">i</text></g>
    <text x="44" y="22" font-size="11" font-weight="700" fill="#1F2A30">Você sabia?</text>
    <text x="44" y="38" font-size="10" fill="#1F2A30" opacity="0.85">Cada denúncia resolvida via Coletaki</text>
    <text x="44" y="50" font-size="10" fill="#1F2A30" opacity="0.85">evita em média 12 kg de resíduos derivados</text>
    <text x="44" y="62" font-size="10" fill="#1F2A30" opacity="0.85">a vias públicas e córregos.</text>
  </g>
  <g transform="translate(0, 740)">
    <rect width="375" height="72" fill="#FFFFFF"/>
    <line x1="0" y1="0" x2="375" y2="0" stroke="#E5E5E0"/>
    <g transform="translate(46, 18)"><path d="M 0 14 L 12 4 L 24 14 L 24 22 L 0 22 Z" fill="none" stroke="#0A6E7C" stroke-width="2" stroke-linejoin="round"/><text x="12" y="36" font-size="9" fill="#0A6E7C" font-weight="700" text-anchor="middle">Início</text></g>
    <g transform="translate(127, 18)"><rect width="24" height="20" rx="2" fill="none" stroke="#7A7A6E" stroke-width="1.5"/><text x="12" y="36" font-size="9" fill="#7A7A6E" text-anchor="middle">Coletas</text></g>
    <g transform="translate(208, 18)"><path d="M 12 2 L 22 22 L 2 22 Z" fill="none" stroke="#7A7A6E" stroke-width="1.5" stroke-linejoin="round"/><text x="12" y="36" font-size="9" fill="#7A7A6E" text-anchor="middle">Reportes</text></g>
    <g transform="translate(289, 18)"><circle cx="12" cy="8" r="4" fill="none" stroke="#7A7A6E" stroke-width="1.5"/><path d="M 4 22 Q 4 14 12 14 Q 20 14 20 22" fill="none" stroke="#7A7A6E" stroke-width="1.5"/><text x="12" y="36" font-size="9" fill="#7A7A6E" text-anchor="middle">Perfil</text></g>
  </g>
  <rect x="125" y="794" width="125" height="4" rx="2" fill="#1F2A30"/>
</svg>
