<?xml version="1.0" encoding="UTF-8"?>
<svg viewBox="0 0 375 812" xmlns="http://www.w3.org/2000/svg" font-family="Inter, system-ui, sans-serif">
  <title>Coletaki — App Coletor</title>
  <defs>
    <linearGradient id="bg" x1="0%" y1="0%" x2="100%" y2="100%"><stop offset="0%" stop-color="#1A1A1A"/><stop offset="100%" stop-color="#000"/></linearGradient>
    <linearGradient id="map" x1="0%" y1="0%" x2="100%" y2="100%"><stop offset="0%" stop-color="#E8F0F2"/><stop offset="100%" stop-color="#C4D4D7"/></linearGradient>
  </defs>
  <rect width="375" height="812" rx="40" fill="url(#bg)"/>
  <rect x="6" y="6" width="363" height="800" rx="34" fill="#1F2A30"/>
  <rect x="130" y="6" width="115" height="28" rx="14" fill="#000"/>
  <g transform="translate(20, 50)">
    <text font-size="10" fill="#FAFAF7" opacity="0.6" letter-spacing="1.5">ROTA ATIVA · 14h32</text>
    <text y="22" font-size="20" font-weight="700" fill="#FAFAF7">Rota Centro · Terça</text>
    <g transform="translate(265, -2)"><rect width="70" height="32" rx="16" fill="#F4A261"/><text x="32" y="20" font-size="10" font-weight="700" fill="#1F2A30">V-3</text></g>
  </g>
  <g transform="translate(20, 110)">
    <rect width="335" height="6" rx="3" fill="#FAFAF7" opacity="0.15"/>
    <rect width="218" height="6" rx="3" fill="#F26B5E"/>
    <text x="0" y="22" font-size="11" fill="#FAFAF7" opacity="0.7">17 de 26 pontos coletados</text>
    <text x="335" y="22" font-size="11" font-weight="700" fill="#F26B5E" text-anchor="end">65%</text>
  </g>
  <g transform="translate(20, 150)">
    <rect width="335" height="180" rx="12" fill="url(#map)"/>
    <path d="M 30 150 Q 80 130 130 110 Q 180 90 230 70 Q 280 50 305 30" fill="none" stroke="#F26B5E" stroke-width="3" stroke-linecap="round"/>
    <circle cx="30" cy="150" r="6" fill="#2D8F4E"/>
    <circle cx="60" cy="140" r="6" fill="#2D8F4E"/>
    <circle cx="90" cy="125" r="6" fill="#2D8F4E"/>
    <circle cx="120" cy="115" r="6" fill="#2D8F4E"/>
    <circle cx="150" cy="100" r="6" fill="#2D8F4E"/>
    <circle cx="180" cy="90" r="12" fill="#F26B5E" opacity="0.25"/>
    <circle cx="180" cy="90" r="8" fill="#F26B5E"/>
    <circle cx="180" cy="90" r="3" fill="#FAFAF7"/>
    <circle cx="210" cy="80" r="6" fill="#FAFAF7" stroke="#7A7A6E" stroke-width="1.5"/>
    <circle cx="240" cy="65" r="6" fill="#FAFAF7" stroke="#7A7A6E" stroke-width="1.5"/>
    <circle cx="270" cy="50" r="6" fill="#FAFAF7" stroke="#7A7A6E" stroke-width="1.5"/>
    <circle cx="300" cy="35" r="6" fill="#FAFAF7" stroke="#7A7A6E" stroke-width="1.5"/>
    <text x="240" y="170" font-size="10" fill="#1F2A30" opacity="0.7" text-anchor="middle">+5 pontos restantes</text>
  </g>
  <g transform="translate(20, 350)">
    <rect width="335" height="160" rx="14" fill="#FAFAF7"/>
    <text x="20" y="28" font-size="10" fill="#7A7A6E" letter-spacing="1.5">PRÓXIMO PONTO</text>
    <text x="20" y="56" font-size="18" font-weight="700" fill="#1F2A30">Rua das Acácias, 142</text>
    <text x="20" y="76" font-size="12" fill="#7A7A6E">Bairro Centro · 80m à frente</text>
    <g transform="translate(20, 90)">
      <rect width="295" height="50" rx="8" fill="#E0EEF0"/>
      <text x="50" y="22" font-size="11" font-weight="700" fill="#1F2A30">Container 240L · #C-1842</text>
      <text x="50" y="36" font-size="10" fill="#7A7A6E">Coleta comum · última: 4 dias atrás</text>
    </g>
  </g>
  <g transform="translate(20, 530)">
    <rect width="335" height="64" rx="14" fill="#2D8F4E"/>
    <g transform="translate(80, 22)"><circle r="10" fill="#FAFAF7"/><path d="M -4 0 L -1 4 L 5 -3" stroke="#2D8F4E" stroke-width="2.5" fill="none" stroke-linecap="round" stroke-linejoin="round"/></g>
    <text x="165" y="40" font-size="15" font-weight="700" fill="#FAFAF7">Marcar como coletado</text>
  </g>
  <g transform="translate(20, 624)">
    <text y="-10" font-size="10" fill="#FAFAF7" opacity="0.6" letter-spacing="1.5">PROBLEMAS?</text>
    <rect width="106" height="60" rx="10" fill="#FAFAF7" opacity="0.08"/>
    <text x="53" y="50" font-size="10" font-weight="600" fill="#FAFAF7" text-anchor="middle">Não acessível</text>
    <g transform="translate(115, 0)"><rect width="106" height="60" rx="10" fill="#FAFAF7" opacity="0.08"/><text x="53" y="50" font-size="10" font-weight="600" fill="#FAFAF7" text-anchor="middle">Danificado</text></g>
    <g transform="translate(230, 0)"><rect width="105" height="60" rx="10" fill="#FAFAF7" opacity="0.08"/><text x="52" y="50" font-size="10" font-weight="600" fill="#FAFAF7" text-anchor="middle">Transbordando</text></g>
  </g>
  <rect x="125" y="794" width="125" height="4" rx="2" fill="#FAFAF7" opacity="0.5"/>
</svg>
